<svg xmlns="http://www.w3.org/2000/svg" viewBox="0 0 64 64"><g id="_35.wind" data-name="35.wind"><path d="M7.09,25.88H32c9.14-.24,9.14-13.62,0-13.86-1.34,0-5.36.84-4.36,2.79A1,1,0,0,0,29,15a4.92,4.92,0,0,1,3-1c6.5.17,6.5,9.69,0,9.86H7.09A1,1,0,0,0,7.09,25.88Z"/><path d="M43.86,38.12H7.09a1,1,0,0,0,0,2H43.86a4.93,4.93,0,1,1-3,8.87,1,1,0,0,0-1.21,1.6c4.35,3.46,11.25,0,11.09-5.54A6.93,6.93,0,0,0,43.86,38.12Z"/><path d="M51,19.14c-1.33,0-5.37.84-4.36,2.78a1,1,0,0,0,1.4.2,4.94,4.94,0,0,1,3-1c6.5.16,6.51,9.69,0,9.86H7.09a1,1,0,0,0,0,2H51C60.12,32.76,60.13,19.38,51,19.14Z"/></g></svg>